<mxfile host="65bd71144e">
    <diagram id="R-snGb2XEDoB03oZnf1s" name="Page-1">
        <mxGraphModel dx="932" dy="658" grid="1" gridSize="10" guides="1" tooltips="1" connect="1" arrows="1" fold="1" page="1" pageScale="1" pageWidth="850" pageHeight="1100" math="0" shadow="0">
            <root>
                <mxCell id="0"/>
                <mxCell id="1" parent="0"/>
                <mxCell id="8" style="edgeStyle=none;html=1;exitX=0.5;exitY=1;exitDx=0;exitDy=0;exitPerimeter=0;entryX=0.5;entryY=0;entryDx=0;entryDy=0;fontSize=12;" edge="1" parent="1" source="2" target="3">
                    <mxGeometry relative="1" as="geometry"/>
                </mxCell>
                <mxCell id="2" value="Start" style="strokeWidth=3;html=1;shape=mxgraph.flowchart.terminator;whiteSpace=wrap;fillColor=#008a00;fontColor=#ffffff;strokeColor=#000000;fontStyle=1;shadow=1;fontSize=12;" vertex="1" parent="1">
                    <mxGeometry x="375" y="30" width="100" height="40" as="geometry"/>
                </mxCell>
                <mxCell id="12" style="edgeStyle=none;html=1;exitX=0.5;exitY=1;exitDx=0;exitDy=0;entryX=0.5;entryY=0;entryDx=0;entryDy=0;fontSize=12;" edge="1" parent="1" source="3" target="4">
                    <mxGeometry relative="1" as="geometry"/>
                </mxCell>
                <mxCell id="3" value="Input the hours worked" style="shape=parallelogram;html=1;strokeWidth=3;perimeter=parallelogramPerimeter;whiteSpace=wrap;rounded=1;arcSize=12;size=0.23;fillColor=#60a917;fontColor=#ffffff;strokeColor=#000000;fontStyle=1;shadow=1;sketch=0;fontSize=12;" vertex="1" parent="1">
                    <mxGeometry x="325" y="120" width="200" height="60" as="geometry"/>
                </mxCell>
                <mxCell id="13" style="edgeStyle=none;html=1;exitX=0.5;exitY=1;exitDx=0;exitDy=0;entryX=0.5;entryY=0;entryDx=0;entryDy=0;fontSize=12;" edge="1" parent="1" source="4" target="5">
                    <mxGeometry relative="1" as="geometry"/>
                </mxCell>
                <mxCell id="4" value="Input the hourly pay rate" style="shape=parallelogram;html=1;strokeWidth=3;perimeter=parallelogramPerimeter;whiteSpace=wrap;rounded=1;arcSize=12;size=0.23;fillColor=#6a00ff;fontColor=#ffffff;strokeColor=#000000;fontStyle=1;shadow=1;fontSize=12;" vertex="1" parent="1">
                    <mxGeometry x="325" y="230" width="200" height="60" as="geometry"/>
                </mxCell>
                <mxCell id="14" style="edgeStyle=none;html=1;exitX=0.5;exitY=1;exitDx=0;exitDy=0;entryX=0.5;entryY=0;entryDx=0;entryDy=0;fontSize=12;" edge="1" parent="1" source="5" target="6">
                    <mxGeometry relative="1" as="geometry"/>
                </mxCell>
                <mxCell id="5" value="Calculate gross pay as&amp;nbsp;&lt;br style=&quot;font-size: 12px;&quot;&gt;hours woled multiplied&lt;br style=&quot;font-size: 12px;&quot;&gt;by pay rate" style="rounded=1;whiteSpace=wrap;html=1;absoluteArcSize=1;arcSize=14;strokeWidth=3;fillColor=#a20025;fontColor=#ffffff;strokeColor=#000000;fontStyle=1;glass=0;sketch=0;shadow=1;fontSize=12;" vertex="1" parent="1">
                    <mxGeometry x="345" y="340" width="160" height="60" as="geometry"/>
                </mxCell>
                <mxCell id="15" style="edgeStyle=none;html=1;exitX=0.5;exitY=1;exitDx=0;exitDy=0;entryX=0.5;entryY=0;entryDx=0;entryDy=0;entryPerimeter=0;fontSize=12;" edge="1" parent="1" source="6" target="7">
                    <mxGeometry relative="1" as="geometry"/>
                </mxCell>
                <mxCell id="6" value="Display the gross pay" style="shape=parallelogram;html=1;strokeWidth=3;perimeter=parallelogramPerimeter;whiteSpace=wrap;rounded=1;arcSize=12;size=0.23;fillColor=#d80073;fontColor=#ffffff;strokeColor=#000000;fontStyle=1;shadow=1;fontSize=12;" vertex="1" parent="1">
                    <mxGeometry x="335" y="440" width="180" height="60" as="geometry"/>
                </mxCell>
                <mxCell id="7" value="End" style="strokeWidth=3;html=1;shape=mxgraph.flowchart.terminator;whiteSpace=wrap;fillColor=#1ba1e2;fontColor=#ffffff;strokeColor=#000000;fontStyle=1;shadow=1;fontSize=12;" vertex="1" parent="1">
                    <mxGeometry x="375" y="540" width="100" height="40" as="geometry"/>
                </mxCell>
            </root>
        </mxGraphModel>
    </diagram>
</mxfile>